# xmcd
#
# Track frame offsets: 
#        150
#        11872
#        25107
#        36779
#        50168
#        69516
#        81686
#
# Disc length: 1121 seconds
#
# Revision: 1
# Processed by: cddbd v1.5.2PL0 Copyright (c) Steve Scherf et al.
# Submitted via: ExactAudioCopy v1.0b3
#
DISCID=5e045f07
DTITLE=やすなとソーニャ - キルミーのベイベー！／ふたりのきもちのほんとのひみつ　【起】盤
DYEAR=2012
DGENRE=Anime
TTITLE0=キルミーのベイベー!
TTITLE1=ふたりのきもちのほんとのひみつ
TTITLE2=キルミーのベイベー!(カラオケ)
TTITLE3=ふたりのきもちのほんとのひみつ(カラオケ)
TTITLE4=キルミーのベイベー!のさらにウザいやつ
TTITLE5=ふたりのきもちのほんとのひみつ (骨折篇) 
TTITLE6=思いついてみた! (ボーナストラック・CM風ショートコント) 
EXTD=
EXTT0=
EXTT1=
EXTT2=
EXTT3=
EXTT4=
EXTT5=
EXTT6=
PLAYORDER=
